<svg xmlns:xlink="http://www.w3.org/1999/xlink" xmlns="http://www.w3.org/2000/svg" width="78" height="136" viewBox="0 0 78 136" fill="none">
<path d="M2.42172 15.2598H13.1617C15.3917 15.2598 17.4917 14.3898 19.0717 12.8198L23.5617 8.32977C24.5117 7.37977 25.7717 6.85976 27.1117 6.85976H67.3517C68.0517 8.90976 69.9917 10.3898 72.2717 10.3898C75.1417 10.3898 77.4717 8.05976 77.4717 5.19976C77.4717 2.33976 75.1417 0.00976562 72.2717 0.00976562C69.9917 0.00976562 68.0517 1.48976 67.3517 3.53976H27.1117C24.8817 3.53976 22.7817 4.40977 21.2017 5.97977L16.7117 10.4698C15.7617 11.4198 14.5017 11.9398 13.1717 11.9398H2.4317C1.5117 11.9398 0.761719 12.6898 0.761719 13.6098C0.761719 14.5298 1.5117 15.2798 2.4317 15.2798L2.42172 15.2598ZM72.2717 3.33976C73.2917 3.33976 74.1317 4.16976 74.1317 5.19976C74.1317 6.22976 73.2917 7.05976 72.2717 7.05976C71.2517 7.05976 70.4117 6.22976 70.4117 5.19976C70.4117 4.16976 71.2517 3.33976 72.2717 3.33976Z" fill="url(#paint0_linear_6421_174273)"/>
<path d="M2.27155 28.5098H18.7316C20.9616 28.5098 23.0616 27.6398 24.6416 26.0698L29.1316 21.5798C30.0816 20.6298 31.3415 20.1098 32.6815 20.1098H67.0016C67.7016 22.1598 69.6416 23.6398 71.9216 23.6398C74.7916 23.6398 77.1216 21.3098 77.1216 18.4498C77.1216 15.5898 74.7916 13.2598 71.9216 13.2598C69.6416 13.2598 67.7016 14.7398 67.0016 16.7898H32.6815C30.4515 16.7898 28.3515 17.6598 26.7715 19.2298L22.2816 23.7198C21.3316 24.6698 20.0716 25.1898 18.7316 25.1898H2.27155C1.35155 25.1898 0.601562 25.9398 0.601562 26.8598C0.601562 27.7798 1.35155 28.5298 2.27155 28.5298V28.5098ZM71.9116 16.5898C72.9316 16.5898 73.7715 17.4198 73.7715 18.4498C73.7715 19.4798 72.9316 20.3098 71.9116 20.3098C70.8916 20.3098 70.0515 19.4798 70.0515 18.4498C70.0515 17.4198 70.8916 16.5898 71.9116 16.5898Z" fill="url(#paint1_linear_6421_174273)"/>
<path d="M71.8 125.3C69.52 125.3 67.58 126.78 66.88 128.83H27.11C25.77 128.83 24.51 128.31 23.56 127.37L19.07 122.88C17.49 121.3 15.39 120.44 13.16 120.44H2.42001C1.50001 120.44 0.75 121.19 0.75 122.11C0.75 123.03 1.50001 123.78 2.42001 123.78H13.16C14.5 123.78 15.76 124.3 16.7 125.24L21.19 129.73C22.77 131.31 24.87 132.17 27.1 132.17H66.87C67.57 134.22 69.51 135.7 71.79 135.7C74.66 135.7 76.99 133.37 76.99 130.5C76.99 127.63 74.66 125.31 71.79 125.31L71.8 125.3ZM71.8 132.35C70.78 132.35 69.94 131.52 69.94 130.49C69.94 129.46 70.78 128.63 71.8 128.63C72.82 128.63 73.66 129.46 73.66 130.49C73.66 131.52 72.83 132.35 71.8 132.35Z" fill="url(#paint2_linear_6421_174273)"/>
<path d="M71.9216 112.05C69.6416 112.05 67.7016 113.53 67.0016 115.58H32.6815C31.3415 115.58 30.0816 115.06 29.1316 114.11L24.6416 109.62C23.0616 108.04 20.9616 107.18 18.7316 107.18H2.27155C1.35155 107.18 0.601562 107.93 0.601562 108.85C0.601562 109.77 1.35155 110.52 2.27155 110.52H18.7316C20.0716 110.52 21.3316 111.04 22.2816 111.98L26.7715 116.47C28.3515 118.05 30.4515 118.91 32.6815 118.91H67.0016C67.7016 120.96 69.6416 122.44 71.9216 122.44C74.7916 122.44 77.1216 120.11 77.1216 117.25C77.1216 114.39 74.7916 112.06 71.9216 112.06V112.05ZM71.9216 119.1C70.9016 119.1 70.0616 118.27 70.0616 117.24C70.0616 116.21 70.9016 115.38 71.9216 115.38C72.9416 115.38 73.7816 116.21 73.7816 117.24C73.7816 118.27 72.9416 119.1 71.9216 119.1Z" fill="url(#paint3_linear_6421_174273)"/>
<path d="M2.27155 41.9699H67.2016C67.9016 44.0199 69.8416 45.4999 72.1216 45.4999C74.9916 45.4999 77.3216 43.1699 77.3216 40.3099C77.3216 37.4499 74.9916 35.1199 72.1216 35.1199C69.8416 35.1199 67.9016 36.5999 67.2016 38.6499H2.27155C1.35155 38.6499 0.601562 39.3999 0.601562 40.3199C0.601562 41.2399 1.35155 41.9899 2.27155 41.9899V41.9699ZM72.1216 38.4399C73.1416 38.4399 73.9816 39.2699 73.9816 40.2999C73.9816 41.3299 73.1516 42.1599 72.1216 42.1599C71.0916 42.1599 70.2616 41.3299 70.2616 40.2999C70.2616 39.2699 71.1016 38.4399 72.1216 38.4399Z" fill="url(#paint4_linear_6421_174273)"/>
<path d="M2.27155 55.3998H67.2016C67.9016 57.4498 69.8416 58.9298 72.1216 58.9298C74.9916 58.9298 77.3216 56.5998 77.3216 53.7398C77.3216 50.8798 74.9916 48.5498 72.1216 48.5498C69.8416 48.5498 67.9016 50.0298 67.2016 52.0798H2.27155C1.35155 52.0798 0.601562 52.8298 0.601562 53.7498C0.601562 54.6698 1.35155 55.4198 2.27155 55.4198V55.3998ZM72.1216 51.8698C73.1416 51.8698 73.9816 52.6998 73.9816 53.7298C73.9816 54.7598 73.1516 55.5898 72.1216 55.5898C71.0916 55.5898 70.2616 54.7598 70.2616 53.7298C70.2616 52.6998 71.1016 51.8698 72.1216 51.8698Z" fill="url(#paint5_linear_6421_174273)"/>
<path d="M2.27155 69.3998H67.2016C67.9016 71.4498 69.8416 72.9298 72.1216 72.9298C74.9916 72.9298 77.3216 70.5998 77.3216 67.7398C77.3216 64.8798 74.9916 62.5498 72.1216 62.5498C69.8416 62.5498 67.9016 64.0298 67.2016 66.0798H2.27155C1.35155 66.0798 0.601562 66.8298 0.601562 67.7498C0.601562 68.6698 1.35155 69.4198 2.27155 69.4198V69.3998ZM72.1216 65.8698C73.1416 65.8698 73.9816 66.6998 73.9816 67.7298C73.9816 68.7598 73.1516 69.5898 72.1216 69.5898C71.0916 69.5898 70.2616 68.7598 70.2616 67.7298C70.2616 66.6998 71.1016 65.8698 72.1216 65.8698Z" fill="url(#paint6_linear_6421_174273)"/>
<path d="M2.27155 83.3998H67.2016C67.9016 85.4498 69.8416 86.9298 72.1216 86.9298C74.9916 86.9298 77.3216 84.5998 77.3216 81.7398C77.3216 78.8798 74.9916 76.5498 72.1216 76.5498C69.8416 76.5498 67.9016 78.0298 67.2016 80.0798H2.27155C1.35155 80.0798 0.601562 80.8298 0.601562 81.7498C0.601562 82.6698 1.35155 83.4198 2.27155 83.4198V83.3998ZM72.1216 79.8698C73.1416 79.8698 73.9816 80.6998 73.9816 81.7298C73.9816 82.7598 73.1516 83.5898 72.1216 83.5898C71.0916 83.5898 70.2616 82.7598 70.2616 81.7298C70.2616 80.6998 71.1016 79.8698 72.1216 79.8698Z" fill="url(#paint7_linear_6421_174273)"/>
<path d="M2.27155 97.3998H67.2016C67.9016 99.4498 69.8416 100.93 72.1216 100.93C74.9916 100.93 77.3216 98.5998 77.3216 95.7398C77.3216 92.8798 74.9916 90.5498 72.1216 90.5498C69.8416 90.5498 67.9016 92.0298 67.2016 94.0798H2.27155C1.35155 94.0798 0.601562 94.8298 0.601562 95.7498C0.601562 96.6698 1.35155 97.4198 2.27155 97.4198V97.3998ZM72.1216 93.8698C73.1416 93.8698 73.9816 94.6998 73.9816 95.7298C73.9816 96.7598 73.1516 97.5898 72.1216 97.5898C71.0916 97.5898 70.2616 96.7598 70.2616 95.7298C70.2616 94.6998 71.1016 93.8698 72.1216 93.8698Z" fill="url(#paint8_linear_6421_174273)"/>
<defs>
<linearGradient id="paint0_linear_6421_174273" x1="0.278812" y1="5.20972" x2="77.7307" y2="14.3172" gradientUnits="userSpaceOnUse">
<stop stop-color="white"/>
<stop offset="1" stop-color="white" stop-opacity="0.25"/>
</linearGradient>
<linearGradient id="paint1_linear_6421_174273" x1="0.119852" y1="18.4597" x2="77.3851" y2="27.5227" gradientUnits="userSpaceOnUse">
<stop offset="0.03125" stop-color="white" stop-opacity="0.25"/>
<stop offset="1" stop-color="white"/>
</linearGradient>
<linearGradient id="paint2_linear_6421_174273" x1="0.270052" y1="125.636" x2="77.2589" y2="134.64" gradientUnits="userSpaceOnUse">
<stop stop-color="white"/>
<stop offset="1" stop-color="white" stop-opacity="0.25"/>
</linearGradient>
<linearGradient id="paint3_linear_6421_174273" x1="0.119852" y1="112.376" x2="77.3837" y2="121.445" gradientUnits="userSpaceOnUse">
<stop offset="0.03125" stop-color="white" stop-opacity="0.25"/>
<stop offset="1" stop-color="white"/>
</linearGradient>
<linearGradient id="paint4_linear_6421_174273" x1="0.118593" y1="38.6546" x2="76.3694" y2="51.8465" gradientUnits="userSpaceOnUse">
<stop stop-color="white"/>
<stop offset="1" stop-color="white" stop-opacity="0.25"/>
</linearGradient>
<linearGradient id="paint5_linear_6421_174273" x1="0.118593" y1="52.0845" x2="76.3694" y2="65.2764" gradientUnits="userSpaceOnUse">
<stop offset="0.03125" stop-color="white" stop-opacity="0.25"/>
<stop offset="1" stop-color="white"/>
</linearGradient>
<linearGradient id="paint6_linear_6421_174273" x1="0.118593" y1="66.0845" x2="76.3694" y2="79.2764" gradientUnits="userSpaceOnUse">
<stop stop-color="white"/>
<stop offset="1" stop-color="white" stop-opacity="0.25"/>
</linearGradient>
<linearGradient id="paint7_linear_6421_174273" x1="0.118593" y1="80.0845" x2="76.3694" y2="93.2764" gradientUnits="userSpaceOnUse">
<stop offset="0.03125" stop-color="white" stop-opacity="0.25"/>
<stop offset="1" stop-color="white"/>
</linearGradient>
<linearGradient id="paint8_linear_6421_174273" x1="0.118593" y1="94.0845" x2="76.3694" y2="107.276" gradientUnits="userSpaceOnUse">
<stop stop-color="white"/>
<stop offset="1" stop-color="white" stop-opacity="0.25"/>
</linearGradient>
</defs>
</svg>