<svg xmlns:xlink="http://www.w3.org/1999/xlink" xmlns="http://www.w3.org/2000/svg" viewBox="0 0 185 121" style="enable-background:new 0 0 185 121" xml:space="preserve" class="EsimBanner_esim__SXlj4" width="185"  height="121" ><defs><linearGradient id="eSim_svg__a" gradientUnits="userSpaceOnUse" x1="11.121" y1="22.056" x2="63.078" y2="18.249" gradientTransform="matrix(1 0 0 -1 0 122)"><stop offset="0" style="stop-color:#fff"></stop><stop offset="1" style="stop-color:#fff;stop-opacity:0.25"></stop></linearGradient><linearGradient id="eSim_svg__a" gradientUnits="userSpaceOnUse" x1="11.121" y1="22.056" x2="63.078" y2="18.249" gradientTransform="matrix(1 0 0 -1 0 122)"><stop offset="0" style="stop-color:#fff"></stop><stop offset="1" style="stop-color:#fff;stop-opacity:0.25"></stop></linearGradient><linearGradient id="eSim_svg__b" gradientUnits="userSpaceOnUse" x1="7.955" y1="100.578" x2="62.927" y2="95.083" gradientTransform="matrix(1 0 0 -1 0 122)"><stop offset="0" style="stop-color:#fff"></stop><stop offset="1" style="stop-color:#fff;stop-opacity:0.25"></stop></linearGradient><linearGradient id="eSim_svg__c" gradientUnits="userSpaceOnUse" x1="15.845" y1="37.118" x2="63.133" y2="34.57" gradientTransform="matrix(1 0 0 -1 0 122)"><stop offset="0" style="stop-color:#fff;stop-opacity:0.25"></stop><stop offset="1" style="stop-color:#fff"></stop></linearGradient><linearGradient id="eSim_svg__d" gradientUnits="userSpaceOnUse" x1="29.441" y1="108.087" x2="62.874" y2="105.611" gradientTransform="matrix(1 0 0 -1 0 122)"><stop offset="0" style="stop-color:#fff;stop-opacity:0.25"></stop><stop offset="1" style="stop-color:#fff"></stop></linearGradient><linearGradient id="eSim_svg__e" gradientUnits="userSpaceOnUse" x1="0.553" y1="57.295" x2="62.077" y2="48.797" gradientTransform="matrix(1 0 0 -1 0 122)"><stop offset="0" style="stop-color:#fff;stop-opacity:0.25"></stop><stop offset="1" style="stop-color:#fff"></stop></linearGradient><linearGradient id="eSim_svg__f" gradientUnits="userSpaceOnUse" x1="0.375" y1="87.455" x2="62.258" y2="80.403" gradientTransform="matrix(1 0 0 -1 0 122)"><stop offset="0" style="stop-color:#fff;stop-opacity:0.25"></stop><stop offset="1" style="stop-color:#fff"></stop></linearGradient><linearGradient id="eSim_svg__g" gradientUnits="userSpaceOnUse" x1="8.02" y1="69.558" x2="62.196" y2="63.004" gradientTransform="matrix(1 0 0 -1 0 122)"><stop offset="0" style="stop-color:#fff"></stop><stop offset="1" style="stop-color:#fff;stop-opacity:0.25"></stop></linearGradient><linearGradient id="eSim_svg__h" gradientUnits="userSpaceOnUse" x1="37.887" y1="41.572" x2="62.301" y2="40.256" gradientTransform="matrix(1 0 0 -1 0 122)"><stop offset="0" style="stop-color:#fff"></stop><stop offset="1" style="stop-color:#fff;stop-opacity:0.25"></stop></linearGradient><linearGradient id="eSim_svg__i" gradientUnits="userSpaceOnUse" x1="64.985" y1="62.896" x2="186.17" y2="60.103" gradientTransform="matrix(1 0 0 -1 0 122)"><stop offset="0" style="stop-color:#fff;stop-opacity:0.25"></stop><stop offset="1" style="stop-color:#fff"></stop></linearGradient></defs><linearGradient id="eSim_svg__a" gradientUnits="userSpaceOnUse" x1="11.121" y1="22.056" x2="63.078" y2="18.249" gradientTransform="matrix(1 0 0 -1 0 122)"><stop offset="0" style="stop-color:#fff"></stop><stop offset="1" style="stop-color:#fff;stop-opacity:0.25"></stop></linearGradient><path style="" d="M60.92 105.62H28.95a4.91 4.91 0 0 1-3.49-1.45l-4.05-4.04c.34-.69.56-1.46.56-2.29 0-2.86-2.33-5.19-5.2-5.19s-5.2 2.33-5.2 5.19c0 2.86 2.33 5.19 5.2 5.19.82 0 1.59-.21 2.28-.55l4.05 4.05a8.228 8.228 0 0 0 5.86 2.42h31.97c.92 0 1.67-.75 1.67-1.67s-.75-1.67-1.67-1.67l-.01.01zm-42.83-6.48h-.02v.03c-.35.33-.8.53-1.31.53-1.02 0-1.86-.83-1.86-1.86 0-1.03.84-1.86 1.86-1.86s1.86.84 1.86 1.86c0 .51-.2.96-.53 1.3z" fill="url(&quot;#eSim_svg__a&quot;)"></path><linearGradient id="eSim_svg__b" gradientUnits="userSpaceOnUse" x1="7.955" y1="100.578" x2="62.927" y2="95.083" gradientTransform="matrix(1 0 0 -1 0 122)"><stop offset="0" style="stop-color:#fff"></stop><stop offset="1" style="stop-color:#fff;stop-opacity:0.25"></stop></linearGradient><path style="" d="M60.91 25.94H32.29a4.91 4.91 0 0 1-3.49-1.45l-1.98-1.98a8.228 8.228 0 0 0-5.86-2.42h-2.51c-.7-2.04-2.62-3.53-4.9-3.53-2.87 0-5.2 2.33-5.2 5.19s2.33 5.19 5.2 5.19c2.28 0 4.2-1.48 4.9-3.53h2.51c1.32 0 2.56.51 3.49 1.45l1.99 1.98a8.228 8.228 0 0 0 5.86 2.42h28.62c.92 0 1.67-.75 1.67-1.67s-.75-1.67-1.67-1.67l-.01.02zm-47.38-2.32c-1.02 0-1.86-.83-1.86-1.86 0-1.03.84-1.86 1.86-1.86s1.85.83 1.86 1.84v.03c0 1.02-.84 1.84-1.86 1.84v.01z" fill="url(&quot;#eSim_svg__b&quot;)"></path><linearGradient id="eSim_svg__c" gradientUnits="userSpaceOnUse" x1="15.845" y1="37.118" x2="63.133" y2="34.57" gradientTransform="matrix(1 0 0 -1 0 122)"><stop offset="0" style="stop-color:#fff;stop-opacity:0.25"></stop><stop offset="1" style="stop-color:#fff"></stop></linearGradient><path style="" d="M60.922 92.34h-24.17a4.91 4.91 0 0 1-3.49-1.45l-7.41-7.4c.51-.8.82-1.75.82-2.77 0-2.86-2.33-5.19-5.2-5.19s-5.2 2.33-5.2 5.19 2.33 5.19 5.2 5.19c.62 0 1.21-.13 1.76-.33l7.67 7.66a8.228 8.228 0 0 0 5.86 2.42h24.17c.92 0 1.67-.74 1.67-1.67s-.75-1.67-1.67-1.67l-.01.02zM19.611 80.73c0-1.02.84-1.86 1.86-1.86s1.86.83 1.86 1.86c0 1.03-.83 1.86-1.86 1.86-1.03 0-1.86-.83-1.86-1.86z" fill="url(&quot;#eSim_svg__c&quot;)"></path><linearGradient id="eSim_svg__d" gradientUnits="userSpaceOnUse" x1="29.441" y1="108.087" x2="62.874" y2="105.611" gradientTransform="matrix(1 0 0 -1 0 122)"><stop offset="0" style="stop-color:#fff;stop-opacity:0.25"></stop><stop offset="1" style="stop-color:#fff"></stop></linearGradient><path style="" d="M60.91 12.66H39.84c-.7-2.04-2.62-3.53-4.9-3.53-2.87 0-5.2 2.33-5.2 5.19s2.33 5.19 5.2 5.19c2.28 0 4.2-1.48 4.9-3.52h21.07c.92 0 1.67-.75 1.67-1.67s-.75-1.67-1.67-1.67v.01zm-25.97 3.53c-1.02 0-1.86-.83-1.86-1.86s.84-1.86 1.86-1.86 1.86.83 1.86 1.86-.84 1.86-1.86 1.86z" fill="url(&quot;#eSim_svg__d&quot;)"></path><linearGradient id="eSim_svg__e" gradientUnits="userSpaceOnUse" x1="0.553" y1="57.295" x2="62.077" y2="48.797" gradientTransform="matrix(1 0 0 -1 0 122)"><stop offset="0" style="stop-color:#fff;stop-opacity:0.25"></stop><stop offset="1" style="stop-color:#fff"></stop></linearGradient><path style="" d="M60.361 65.78h-49.46c-.69-2.05-2.62-3.54-4.91-3.54-2.87 0-5.2 2.33-5.2 5.19s2.33 5.19 5.2 5.19c2.27 0 4.19-1.47 4.9-3.51h49.48c.92 0 1.67-.75 1.67-1.67 0-.92-.75-1.67-1.67-1.67l-.01.01zm-54.37 3.51c-1.03 0-1.86-.83-1.86-1.86s.84-1.86 1.86-1.86 1.86.83 1.86 1.85v.02a1.859 1.859 0 0 1-1.86 1.84v.01z" fill="url(&quot;#eSim_svg__e&quot;)"></path><linearGradient id="eSim_svg__f" gradientUnits="userSpaceOnUse" x1="0.375" y1="87.455" x2="62.258" y2="80.403" gradientTransform="matrix(1 0 0 -1 0 122)"><stop offset="0" style="stop-color:#fff;stop-opacity:0.25"></stop><stop offset="1" style="stop-color:#fff"></stop></linearGradient><path style="" d="M60.361 39.22h-34.58c-1.32 0-2.56-.51-3.49-1.45l-1.84-1.83a8.228 8.228 0 0 0-5.86-2.42h-3.7c-.7-2.04-2.62-3.53-4.9-3.53-2.87 0-5.2 2.33-5.2 5.19s2.33 5.2 5.2 5.2c2.28 0 4.2-1.48 4.9-3.52h3.7c1.32 0 2.56.51 3.49 1.45l1.84 1.84a8.228 8.228 0 0 0 5.86 2.42h34.58c.92 0 1.67-.75 1.67-1.67 0-.92-.75-1.67-1.67-1.67v-.01zm-54.37-2.18c-1.03 0-1.86-.84-1.86-1.86s.84-1.86 1.86-1.86 1.86.83 1.86 1.86-.83 1.86-1.86 1.86z" fill="url(&quot;#eSim_svg__f&quot;)"></path><linearGradient id="eSim_svg__g" gradientUnits="userSpaceOnUse" x1="8.02" y1="69.558" x2="62.196" y2="63.004" gradientTransform="matrix(1 0 0 -1 0 122)"><stop offset="0" style="stop-color:#fff"></stop><stop offset="1" style="stop-color:#fff;stop-opacity:0.25"></stop></linearGradient><path style="" d="M60.37 52.5H18.45c-.7-2.04-2.62-3.53-4.9-3.53-2.87 0-5.2 2.33-5.2 5.19 0 2.86 2.33 5.2 5.2 5.2 2.28 0 4.2-1.48 4.9-3.52h41.93c.92 0 1.67-.75 1.67-1.67 0-.92-.75-1.67-1.67-1.67h-.01zm-46.83 3.53c-1.02 0-1.86-.83-1.86-1.86s.84-1.86 1.86-1.86 1.85.83 1.86 1.84v.03c0 1.02-.84 1.84-1.86 1.84v.01z" fill="url(&quot;#eSim_svg__g&quot;)"></path><linearGradient id="eSim_svg__h" gradientUnits="userSpaceOnUse" x1="37.887" y1="41.572" x2="62.301" y2="40.256" gradientTransform="matrix(1 0 0 -1 0 122)"><stop offset="0" style="stop-color:#fff"></stop><stop offset="1" style="stop-color:#fff;stop-opacity:0.25"></stop></linearGradient><path style="" d="M60.361 79.06h-12.15c-.7-2.04-2.62-3.53-4.9-3.53-2.87 0-5.2 2.33-5.2 5.19s2.33 5.19 5.2 5.19c2.28 0 4.2-1.48 4.9-3.53h12.15c.92 0 1.67-.75 1.67-1.67s-.75-1.67-1.67-1.67v.02zm-17.05 3.53c-1.03 0-1.86-.83-1.86-1.86 0-1.03.83-1.86 1.86-1.86 1.03 0 1.86.83 1.86 1.86 0 1.03-.83 1.86-1.86 1.86z" fill="url(&quot;#eSim_svg__h&quot;)"></path><linearGradient id="eSim_svg__i" gradientUnits="userSpaceOnUse" x1="64.985" y1="62.896" x2="186.17" y2="60.103" gradientTransform="matrix(1 0 0 -1 0 122)"><stop offset="0" style="stop-color:#fff;stop-opacity:0.25"></stop><stop offset="1" style="stop-color:#fff"></stop></linearGradient><path style="" d="M182.921 29c.92 0 1.67-.75 1.67-1.67 0-.92-.75-1.67-1.67-1.67h-2.49v-9.94h2.49c.92 0 1.67-.75 1.67-1.67s-.75-1.67-1.67-1.67h-2.49V9.4c0-2.91-2.37-5.28-5.29-5.28h-.99v-2.1c0-.92-.75-1.67-1.67-1.67s-1.67.75-1.67 1.67v2.1h-10.19v-2.1c0-.92-.75-1.67-1.67-1.67s-1.67.75-1.67 1.67v2.1h-10.19v-2.1c0-.92-.75-1.67-1.67-1.67s-1.67.75-1.67 1.67v2.1h-10.19v-2.1c0-.92-.75-1.67-1.67-1.67-.92 0-1.67.75-1.67 1.67v2.1h-10.19v-2.1c0-.92-.75-1.67-1.67-1.67s-1.67.75-1.67 1.67v2.1h-10.19v-2.1c0-.92-.75-1.67-1.67-1.67s-1.67.75-1.67 1.67v2.1h-10.19v-2.1c0-.92-.75-1.67-1.67-1.67s-1.67.75-1.67 1.67v2.1h-10.19v-2.1c0-.92-.75-1.67-1.67-1.67s-1.67.75-1.67 1.67v2.1h-.99c-2.92 0-5.29 2.37-5.29 5.28v3.31h-2.01c-.92 0-1.67.75-1.67 1.67s.75 1.67 1.67 1.67h2.01v9.93h-2.01c-.92 0-1.67.75-1.67 1.67s.75 1.67 1.67 1.67h2.01v9.93h-2.01c-.92 0-1.67.75-1.67 1.67 0 .92.75 1.67 1.67 1.67h2.01v9.92h-2.01c-.92 0-1.67.75-1.67 1.67 0 .92.75 1.67 1.67 1.67h2.01v9.93h-2.01c-.92 0-1.67.75-1.67 1.67 0 .92.75 1.67 1.67 1.67h2.01v9.93h-2.01c-.92 0-1.67.75-1.67 1.67s.75 1.67 1.67 1.67h2.01v9.93h-2.01c-.92 0-1.67.75-1.67 1.67 0 .92.75 1.67 1.67 1.67h2.01v9.93h-2.01c-.92 0-1.67.75-1.67 1.67 0 .92.75 1.67 1.67 1.67h2.01v2.64c0 2.91 2.37 5.28 5.29 5.28h.99v2.11c0 .92.75 1.67 1.67 1.67s1.67-.75 1.67-1.67v-2.11h10.19v2.11c0 .92.75 1.67 1.67 1.67s1.67-.75 1.67-1.67v-2.11h10.19v2.11c0 .92.75 1.67 1.67 1.67s1.67-.75 1.67-1.67v-2.11h10.19v2.11c0 .92.75 1.67 1.67 1.67s1.67-.75 1.67-1.67v-2.11h10.19v2.11c0 .92.75 1.67 1.67 1.67.92 0 1.67-.75 1.67-1.67v-2.11h10.19v2.11c0 .92.75 1.67 1.67 1.67s1.67-.75 1.67-1.67v-2.11h10.19v2.11c0 .92.75 1.67 1.67 1.67s1.67-.75 1.67-1.67v-2.11h10.19v2.11c0 .92.75 1.67 1.67 1.67s1.67-.75 1.67-1.67v-2.11h.99c2.92 0 5.29-2.37 5.29-5.28v-2.86h2.49c.92 0 1.67-.75 1.67-1.67s-.75-1.67-1.67-1.67h-2.49v-9.94h2.49c.92 0 1.67-.75 1.67-1.67s-.75-1.67-1.67-1.67h-2.49v-9.94h2.49c.92 0 1.67-.75 1.67-1.67 0-.92-.75-1.67-1.67-1.67h-2.49v-9.94h2.49c.92 0 1.67-.75 1.67-1.67 0-.92-.75-1.67-1.67-1.67h-2.49v-9.94h2.49c.92 0 1.67-.75 1.67-1.67 0-.92-.75-1.67-1.67-1.67h-2.49v-9.94h2.49c.92 0 1.67-.75 1.67-1.67 0-.92-.75-1.67-1.67-1.67h-2.49v-9.94h2.49V29zm-5.83 82.54c0 1.07-.88 1.95-1.95 1.95H75.091c-1.07 0-1.95-.87-1.95-1.95V9.4c0-1.07.88-1.95 1.95-1.95h100.05c1.08 0 1.95.87 1.95 1.95v102.14z" fill="url(&quot;#eSim_svg__i&quot;)"></path><path style="fill:#fff" d="M103.17 65.66h-8.16c.04 1.22.44 2.18 1.18 2.88.75.7 1.74 1.06 2.98 1.06.94 0 2.07-.28 3.39-.83.94-.38 1.6-.24 1.98.45.19.32.22.68.1 1.09-.11.38-.36.7-.77.96-1.24.83-2.92 1.25-5.06 1.25-2.39 0-4.22-.7-5.5-2.11-1.26-1.41-1.89-3.4-1.89-5.98 0-2.58.67-4.49 2.02-5.98 1.34-1.49 3.16-2.24 5.44-2.24 2.05 0 3.65.59 4.8 1.76 1.17 1.15 1.76 2.69 1.76 4.61 0 .62-.05 1.12-.16 1.5-.15.56-.38.96-.7 1.22-.32.26-.79.38-1.41.38v-.02zm-4.29-6.56c-1.13 0-2.04.35-2.72 1.06-.66.68-1.04 1.68-1.15 2.98h7.07c.02-.21.03-.48.03-.8 0-.96-.28-1.74-.83-2.34-.53-.6-1.33-.9-2.4-.9zm16.22-5.79c-2.11 0-3.17.77-3.17 2.3 0 .68.28 1.27.83 1.76.55.47 1.24.83 2.05 1.09.83.26 1.73.58 2.69.96.98.38 1.88.79 2.69 1.22.83.43 1.52 1.08 2.08 1.95.55.88.83 1.92.83 3.14 0 2.07-.65 3.72-1.95 4.96-1.3 1.22-3.26 1.82-5.89 1.82-2.35 0-4.37-.44-6.08-1.31-.73-.38-1.22-.84-1.47-1.38-.24-.53-.2-1.08.1-1.63.43-.83 1.34-.96 2.75-.38 1.71.79 3.31 1.18 4.8 1.18 1.19 0 2.13-.24 2.82-.7.7-.47 1.06-1.16 1.06-2.08s-.38-1.62-1.15-2.18c-.77-.55-1.7-1-2.78-1.34-1.09-.34-2.19-.73-3.3-1.15a6.816 6.816 0 0 1-2.78-2.11c-.77-.96-1.15-2.19-1.15-3.68 0-1.84.62-3.29 1.86-4.35 1.26-1.07 3.08-1.6 5.47-1.6 2.15 0 4.01.45 5.57 1.34 1.3.7 1.67 1.6 1.12 2.69-.47.92-1.48 1.04-3.04.35-1.37-.58-2.68-.86-3.94-.86l-.02-.01zm11.42 16.93V52.1c0-.58.16-1.05.48-1.41.34-.38.82-.58 1.44-.58s1.07.19 1.41.58c.34.36.51.83.51 1.41v18.14c0 .58-.17 1.04-.51 1.41-.34.36-.81.54-1.41.54-.6 0-1.1-.18-1.44-.54-.32-.36-.48-.83-.48-1.41zm12.4-18.88 6.53 10.3 6.4-10.34c.51-.81 1.14-1.22 1.89-1.22.58 0 1.01.18 1.31.54.32.36.48.84.48 1.44v18.14c0 .58-.17 1.04-.51 1.41-.32.36-.79.54-1.41.54s-1.07-.18-1.41-.54c-.34-.36-.51-.83-.51-1.41V57.2l-4.67 7.55c-.47.77-1.06 1.15-1.76 1.15s-1.32-.37-1.79-1.12l-4.74-7.42v12.86c0 1.3-.6 1.95-1.79 1.95s-1.79-.65-1.79-1.95V52.11c0-.68.16-1.18.48-1.5.34-.34.78-.51 1.31-.51.81 0 1.47.42 1.98 1.25v.01z"></path></svg>