<?xml version="1.0" encoding="UTF-8"?><svg id="Layer_1" xmlns="http://www.w3.org/2000/svg" viewBox="0 0 16 16"><defs><style>.cls-1{fill:#d43157;}</style></defs><path class="cls-1" d="m9.24,6.52h0c-.72,0-1.3.59-1.29,1.31,0,.71.59,1.29,1.31,1.29.34,0,.54-.02.85-.07.23-.04.32-.13.36-.4,0-.03.01-.06.02-.09.04-.21.06-.33.06-.75,0-.71-.58-1.29-1.3-1.29Z"/><path class="cls-1" d="m14.42,3.38C11.97.13,7.35-.52,4.1,1.93,1.81,3.66.81,6.47,1.29,9.13c.08.49.21,2.02-.85,3.41-.14.16-.24.32-.29.54-.07.33.04.64.22.89.19.25.46.43.79.46.21.02.4-.04.59-.13,1.63-.64,3.05-.09,3.51.13,2.41,1.19,5.4,1.01,7.7-.72,3.25-2.45,3.9-7.07,1.45-10.32Zm-7.74,6.15c0,.24-.2.44-.44.44s-.44-.2-.44-.44v-1.68c0-.7-.57-1.26-1.26-1.26s-1.26.57-1.26,1.26v1.68c0,.24-.2.44-.44.44s-.44-.2-.44-.44v-1.68c0-1.18.96-2.14,2.14-2.14s2.14.96,2.14,2.14v1.68Zm4.41.48s-.01,0-.02,0c-.05,0-.11-.01-.16-.04,0,0,0,0,0,0-.22-.08-.44-.11-.67-.11-.25,0-.41.05-.41.05,0,0,0,0-.01,0-.16.04-.32.07-.48.08-.03,0-.07,0-.1,0-1.15,0-2.1-.9-2.15-2.06-.05-1.19.87-2.2,2.05-2.25.03,0,.07,0,.1,0,1.15,0,2.1.9,2.15,2.06.01.23-.02.46-.08.69,0,0,0,.02,0,.03,0,0-.2.49.06.99.04.06.06.12.07.19,0,.2-.15.37-.35.38Zm3.33-3.35s-.08,0-.12-.02c-.12-.03-.24-.05-.36-.05-.7,0-1.26.57-1.26,1.26v1.68c0,.24-.2.44-.44.44s-.44-.2-.44-.44v-1.68c0-1.18.96-2.14,2.14-2.14.21,0,.41.03.61.09.23.07.36.31.3.54-.05.18-.23.31-.42.31Z"/></svg>