<svg width="24" height="24" viewBox="0 0 24 24" fill="none" xmlns="http://www.w3.org/2000/svg">
<path d="M0.460938 2.15073C0.460938 1.25289 1.22716 0.50769 2.17368 0.50769H21.8251C22.7716 0.50769 23.5379 1.24392 23.5379 2.15073V21.8493C23.5379 22.7471 22.7716 23.4923 21.8251 23.4923H2.17368C1.22716 23.4923 0.460938 22.7561 0.460938 21.8493V2.15073Z" fill="white"/>
<path d="M7.47506 19.7393V9.39627H4.02254V19.7393H7.47506ZM5.75331 7.97769C6.95222 7.97769 7.70042 7.18759 7.70042 6.19099C7.68239 5.17644 6.95222 4.4043 5.78035 4.4043C4.59946 4.4043 3.82422 5.17644 3.82422 6.19997C3.82422 7.18759 4.57242 7.98667 5.73528 7.98667H5.75331V7.97769ZM9.38612 19.7393H12.8386V13.9752C12.8386 13.661 12.8657 13.3467 12.9558 13.1313C13.1992 12.5207 13.7671 11.8743 14.7227 11.8743C15.9757 11.8743 16.4715 12.826 16.4715 14.2087V19.7483H19.933V13.8226C19.933 10.6443 18.2293 9.15385 15.9666 9.15385C15.3326 9.12946 14.704 9.28006 14.1505 9.58901C13.5969 9.89796 13.1398 10.3533 12.8296 10.9046H12.8477V9.39627H9.38612C9.43119 10.3659 9.38612 19.7393 9.38612 19.7393Z" fill="#333132"/>
</svg>
