<svg xmlns:xlink="http://www.w3.org/1999/xlink" viewBox="0 0 57 56" fill="none" xmlns="http://www.w3.org/2000/svg" xml:space="preserve" width="57"  height="56" ><g clip-path="url(#Logo_svg__a)" fill="none"><path d="M4.547 32.626c.283 1.752.76 7.168-3.014 12.105-.48.579-.862 1.153-1.013 1.898-.237 1.164.125 2.282.787 3.16.661.879 1.636 1.536 2.818 1.63.76.06 1.417-.146 2.105-.448 5.776-2.257 10.843-.314 12.458.447 8.574 4.232 19.162 3.59 27.322-2.552 11.538-8.686 13.85-25.08 5.164-36.618C42.489.71 26.094-1.602 14.556 7.085 6.4 13.225 2.855 23.22 4.546 32.626Z" fill="#FFFFFF"></path><path d="M23.694 28.111v5.965c0 .855-.695 1.55-1.55 1.55-.855 0-1.55-.695-1.55-1.55v-5.965a4.494 4.494 0 0 0-4.49-4.489 4.496 4.496 0 0 0-4.49 4.49v5.964a1.551 1.551 0 0 1-3.1 0v-5.965c0-4.185 3.405-7.59 7.59-7.59 4.186 0 7.59 3.405 7.59 7.59Zm27.92-7.28a7.586 7.586 0 0 0-2.15-.31c-4.186 0-7.591 3.405-7.591 7.59v5.965c0 .855.696 1.55 1.55 1.55.856 0 1.551-.695 1.551-1.55v-5.965a4.495 4.495 0 0 1 5.762-4.306 1.558 1.558 0 0 0 1.926-1.048 1.552 1.552 0 0 0-1.049-1.926Zm-11.28 12.911a1.289 1.289 0 0 1-1.61 1.901l-.02-.005a7.258 7.258 0 0 0-2.383-.403c-.878 0-1.45.164-1.455.166a.236.236 0 0 1-.044.007 7.657 7.657 0 0 1-2.066.283 7.637 7.637 0 0 1-7.639-7.302c-.193-4.215 3.08-7.801 7.295-7.994a7.637 7.637 0 0 1 7.994 7.294 7.628 7.628 0 0 1-.283 2.442.205.205 0 0 1-.016.091c-.008.018-.726 1.754.227 3.52Zm-2.951-5.787c0-2.531-2.069-4.59-4.61-4.59h-.026a4.622 4.622 0 0 0-4.592 4.64c.013 2.533 2.096 4.594 4.643 4.594 1.2 0 1.9-.077 3.014-.248.83-.128 1.12-.445 1.296-1.413.02-.115.04-.22.06-.32.137-.75.215-1.163.215-2.663Z" fill="#D43157"></path></g><defs><clipPath id="Logo_svg__a"><path fill="#fff" transform="translate(.447)" d="M0 0h56v56H0z"></path></clipPath></defs></svg>