<svg xmlns:xlink="http://www.w3.org/1999/xlink" viewBox="0 0 24 24" fill="none" xmlns="http://www.w3.org/2000/svg" xml:space="preserve" width="24"  height="24" ><mask id="Currency_svg__a" maskUnits="userSpaceOnUse" x="2.484" y="3" width="20" height="18" fill="#000"><path fill="#FFFFFF" d="M2.484 3h20v18h-20z"></path><path fill-rule="evenodd" clip-rule="evenodd" d="M11.482 17.707c.18.187.426.293.682.293a.947.947 0 0 0 .682-.293c.18-.188.282-.442.282-.707V9.215c3.31.672 5.787 4.769 5.787 9.878 0 .24.102.471.282.641.181.17.426.266.682.266a.996.996 0 0 0 .682-.266.88.88 0 0 0 .282-.64c0-6.276-3.255-11.112-7.715-11.724V5c0-.357-.184-.687-.482-.866a.934.934 0 0 0-.964 0 1.007 1.007 0 0 0-.483.866v2.37c-4.46.612-7.715 5.448-7.715 11.723 0 .324.184.623.482.785.299.163.666.163.965 0a.898.898 0 0 0 .482-.785c0-5.11 2.477-9.205 5.786-9.878V17c0 .265.102.52.283.707Z"></path></mask><path fill-rule="evenodd" clip-rule="evenodd" d="M11.482 17.707c.18.187.426.293.682.293a.947.947 0 0 0 .682-.293c.18-.188.282-.442.282-.707V9.215c3.31.672 5.787 4.769 5.787 9.878 0 .24.102.471.282.641.181.17.426.266.682.266a.996.996 0 0 0 .682-.266.88.88 0 0 0 .282-.64c0-6.276-3.255-11.112-7.715-11.724V5c0-.357-.184-.687-.482-.866a.934.934 0 0 0-.964 0 1.007 1.007 0 0 0-.483.866v2.37c-4.46.612-7.715 5.448-7.715 11.723 0 .324.184.623.482.785.299.163.666.163.965 0a.898.898 0 0 0 .482-.785c0-5.11 2.477-9.205 5.786-9.878V17c0 .265.102.52.283.707Z" fill="#58595C"></path><path d="m11.482 17.707.72-.694-.72.694Zm1.364 0-.72-.695.72.695Zm.282-8.492.2-.98-1.2-.244v1.224h1Zm6.07 10.52-.686.728.685-.729Zm.681.265v1-1Zm.682-.266-.685-.729.685.73ZM13.128 7.37h-1v.872l.864.118.136-.99Zm-.482-3.236-.514.858.514-.858Zm-.964 0 .513.858-.513-.858Zm-.483 3.236.136.99.864-.118V7.37h-1ZM3.967 19.878l-.478.88.478-.88Zm.964 0 .477.88-.477-.88Zm6.268-10.663h1V7.991L11 8.235l.2.98ZM12.164 17c.021 0 .034.009.038.013l-1.44 1.387c.365.38.87.6 1.402.6v-2Zm0 0v2-2Zm-.038.013a.055.055 0 0 1 .038-.013v2c.532 0 1.036-.22 1.402-.6l-1.44-1.387Zm.002-.013a.033.033 0 0 1-.002.011v.001l1.44 1.389c.364-.378.562-.882.562-1.401h-2Zm0-7.785V17h2V9.215h-2Zm7.787 9.878c0-2.71-.656-5.191-1.792-7.112-1.132-1.915-2.788-3.338-4.796-3.746l-.398 1.96c1.302.264 2.54 1.226 3.473 2.804.93 1.573 1.513 3.694 1.513 6.094h2Zm-.033-.087a.122.122 0 0 1 .033.087h-2c0 .526.223 1.017.597 1.37l1.37-1.457ZM19.88 19l-.006-.001.01.007-1.37 1.457c.372.35.865.537 1.366.537v-2Zm-.003.006a.042.042 0 0 1 .007-.006h.002v-.001h-.006v2c.502 0 .994-.186 1.367-.536l-1.37-1.457Zm-.033.087c0-.045.02-.075.033-.087l1.37 1.457a1.88 1.88 0 0 0 .598-1.37h-2ZM12.993 8.36c3.751.515 6.85 4.707 6.85 10.733h2c0-6.524-3.41-12.005-8.579-12.714l-.272 1.981ZM12.127 5v2.37h2V5h-2Zm.004-.008c-.006-.004-.008-.007-.007-.005a.027.027 0 0 1 .003.013h2c0-.697-.358-1.359-.968-1.724l-1.028 1.716Zm.064 0a.063.063 0 0 1-.032.008.064.064 0 0 1-.032-.008l1.028-1.716a1.934 1.934 0 0 0-1.992 0l1.028 1.716Zm.003.008c0-.007.002-.011.003-.013s0 .001-.007.005l-1.027-1.716A2.007 2.007 0 0 0 10.199 5h2Zm0 2.37V5h-2v2.37h2ZM4.484 19.093c0-6.026 3.1-10.218 6.851-10.733l-.272-1.981c-5.168.71-8.579 6.19-8.579 12.714h2ZM4.444 19a.066.066 0 0 1 .022.023c.01.017.018.041.018.07h-2c0 .712.404 1.338 1.005 1.664L4.444 19Zm.01 0h-.01l-.955 1.757a2.018 2.018 0 0 0 1.92 0L4.453 19Zm-.04.093c0-.029.008-.053.018-.07A.068.068 0 0 1 4.454 19l.954 1.757a1.898 1.898 0 0 0 1.005-1.664h-2ZM11 8.235c-2.007.408-3.663 1.831-4.795 3.746-1.136 1.921-1.792 4.403-1.792 7.112h2c0-2.4.583-4.521 1.513-6.094.934-1.578 2.17-2.54 3.473-2.804L11 8.235ZM12.2 17V9.215h-2V17h2Zm.002.012c.001.002 0 .002 0 0a.03.03 0 0 1-.003-.012h-2c0 .519.2 1.023.563 1.4l1.44-1.388Z" fill="#58595C" mask="url(#Currency_svg__a)"></path></svg>