<svg xmlns:xlink="http://www.w3.org/1999/xlink" viewBox="0 0 20 21" fill="none" xmlns="http://www.w3.org/2000/svg" xml:space="preserve" width="20"  height="21" ><path fill-rule="evenodd" clip-rule="evenodd" d="M10.001 1.996a8.958 8.958 0 1 0 0 17.917 8.958 8.958 0 0 0 0-17.917Zm-7.708 8.958a7.708 7.708 0 1 1 15.417 0 7.708 7.708 0 0 1-15.417 0Zm6.08-3.14c.428-1.281 2.117-1.555 2.927-.475a1.674 1.674 0 0 1-.08 2.106l-.765.875a4.359 4.359 0 0 0-1.079 2.87v.264a.625.625 0 1 0 1.25 0v-.264c0-.753.274-1.48.77-2.047l.765-.875c.91-1.04.968-2.574.14-3.68-1.416-1.886-4.367-1.407-5.113.83l-.28.839a.625.625 0 1 0 1.186.395l.28-.838Zm1.628 8.974a.833.833 0 1 0 0-1.667.833.833 0 0 0 0 1.667Z" fill="#D43157"></path></svg>