<svg width="24" height="20" viewBox="0 0 24 20" fill="none" xmlns="http://www.w3.org/2000/svg">
<path d="M23.5379 3.11097C22.6737 3.50172 21.7571 3.75822 20.8186 3.87192C21.7962 3.27383 22.5468 2.32674 22.9003 1.19829C21.9709 1.76121 20.9542 2.15783 19.8939 2.371C19.0302 1.43182 17.7998 0.844864 16.438 0.844864C13.8233 0.844864 11.7034 3.00865 11.7034 5.6774C11.7034 6.05622 11.7453 6.42501 11.826 6.7788C7.89117 6.5772 4.40258 4.65329 2.0674 1.72948C1.65995 2.44323 1.42647 3.27346 1.42647 4.159C1.42647 5.83566 2.26238 7.31478 3.53269 8.18145C2.78084 8.15741 2.04554 7.95014 1.38816 7.57692C1.38789 7.59716 1.38789 7.61741 1.38789 7.63774C1.38789 9.9792 3.01986 11.9325 5.18567 12.3764C4.48848 12.57 3.75718 12.5983 3.04763 12.4592C3.65006 14.3792 5.39859 15.7763 7.47028 15.8154C5.84994 17.1115 3.80844 17.8842 1.59035 17.8842C1.20814 17.8842 0.83134 17.8612 0.460938 17.8166C2.55616 19.1878 5.04477 19.9879 7.71845 19.9879C16.427 19.9879 21.1891 12.6239 21.1891 6.23785C21.1891 6.02825 21.1846 5.81984 21.1754 5.61262C22.1023 4.92867 22.9023 4.08154 23.5379 3.11097" fill="white"/>
</svg>
